Patient4_TMGait_0pt7_02_right_15_GRF.mot
version=1
nRows=71
nColumns=19
inDegrees=no
endheader
time	F1x	F1y	F1z	M1x	M1y	M1z	F2x	F2y	F2z	M2x	M2y	M2z	EC1x	EC1y	EC1z	EC2x	EC2y	EC2z
16.27	17.2873	708.0367	67.6163	-237.8383	-70.2689	753.9801	21.3331	-0.22953	-1.473	-0.55046	-0.07979	-7.2738	-0.0592	0.0182	-0.0073	-0.0462	0.0165	0.9585
16.2819	7.7766	712.254	67.7788	-239.7878	-71.3775	751.1313	14.1662	0.78589	-1.1597	0.008165	0.15656	-3.6774	-0.0592	0.0182	-0.0073	-0.0462	0.0165	0.9585
16.2939	-0.038952	717.7223	67.7767	-242.0317	-71.9339	749.5573	8.1391	1.6187	-0.86957	0.46584	0.34101	-0.69804	-0.0592	0.0182	-0.0073	-0.0462	0.0165	0.9585
16.3058	-5.6676	724.1554	67.5936	-244.4639	-71.8648	749.2525	3.5379	2.2639	-0.62814	0.81667	0.47806	1.5645	-0.0592	0.0182	-0.0073	-0.0462	0.0165	0.9585
16.3177	-9.1152	731.082	67.243	-246.9512	-71.2023	749.8174	0.36735	2.7213	-0.46585	1.0654	0.58389	3.097	-0.0592	0.0182	-0.0073	-0.0462	0.0165	0.9585
16.3296	-10.6145	737.8718	66.7081	-249.3253	-69.9788	750.5748	-1.6204	3.0335	-0.36951	1.2322	0.66475	4.0409	-0.0592	0.0182	-0.0073	-0.0462	0.0165	0.9585
16.3416	-10.5016	743.8101	65.9749	-251.3887	-68.2432	750.691	-2.6904	3.1921	-0.3431	1.3229	0.74303	4.4875	-0.0592	0.0182	-0.0073	-0.0462	0.0165	0.9585
16.3535	-9.0873	748.1744	65.0776	-252.929	-66.0798	749.3003	-3.1471	3.2231	-0.35932	1.3472	0.8232	4.5802	-0.0592	0.0182	-0.0073	-0.0462	0.0165	0.9585
16.3654	-6.5967	750.3582	64.026	-253.7639	-63.5306	745.6844	-3.2193	3.0723	-0.4082	1.2896	0.9114	4.3365	-0.0592	0.0182	-0.0073	-0.0462	0.0165	0.9585
16.3774	-3.1803	750.0088	62.9057	-253.7848	-60.6895	739.4008	-3.1113	2.6902	-0.47451	1.1324	1.0124	3.7716	-0.0592	0.0182	-0.0073	-0.0462	0.0165	0.9585
16.3893	1.0788	747.0885	61.7593	-252.988	-57.5966	730.3494	-2.933	1.98	-0.55201	0.84182	1.1252	2.8096	-0.0592	0.0182	-0.0073	-0.0462	0.0165	0.9585
16.4012	6.1503	741.9489	60.7312	-251.4889	-54.3801	718.8605	-2.7561	0.83361	-0.62997	0.37864	1.2436	1.3588	-0.0592	0.0182	-0.0073	-0.0462	0.0165	0.9585
16.4131	11.9895	735.3543	59.9232	-249.5369	-51.1344	705.6733	-2.585	-0.8344	-0.68836	-0.29149	1.3349	-0.66413	-0.0592	0.0182	-0.0073	-0.0462	0.0165	0.9585
16.4251	18.5245	728.4005	59.5244	-247.4857	-48.0444	691.8853	-2.3837	-3.0632	-0.70463	-1.182	1.35	-3.3046	-0.0592	0.0182	-0.0073	-0.0462	0.0165	0.9585
16.437	25.6637	722.3999	59.6773	-245.7572	-45.2567	678.809	-2.0906	-5.7695	-0.64356	-2.2574	1.2201	-6.4709	-0.0592	0.0182	-0.0073	-0.0462	0.0165	0.9585
16.4489	33.2347	718.6138	60.5584	-244.7522	-42.9726	667.7181	-1.5967	-8.6809	-0.46867	-3.4051	0.86115	-9.8575	-0.0592	0.0182	-0.0073	-0.0462	0.0165	0.9585
16.4609	41.0041	717.9955	62.257	-244.7691	-41.3349	659.6086	-0.79987	-11.207	-0.12608	-4.3887	0.17405	-12.7769	-0.0592	0.0182	-0.0073	-0.0462	0.0165	0.9585
16.4728	48.6552	720.8685	64.8018	-245.8948	-40.4637	654.9324	0.42378	-12.3743	0.43751	-4.8169	-0.94499	-14.1082	-0.0592	0.0182	-0.0073	-0.0462	0.0165	0.9585
16.4847	55.7906	726.6798	68.0926	-247.9223	-40.3995	653.3586	2.1352	-10.677	1.2739	-4.0963	-2.5752	-12.0914	-0.0592	0.0182	-0.0073	-0.0462	0.0165	0.9585
16.4966	61.9651	734.0023	71.9151	-250.3463	-41.1107	653.7937	4.3623	-4.1081	2.4019	-1.4361	-4.7382	-4.3899	-0.0592	0.0182	-0.0073	-0.0462	0.0165	0.9585
16.5086	66.7459	740.6692	75.9432	-252.413	-42.4771	654.5012	6.9614	9.8375	3.8001	4.1384	-7.3394	11.9398	-0.0592	0.0182	-0.0073	-0.0462	0.0165	0.9585
16.5205	69.7412	744.1371	79.7446	-253.2475	-44.2839	653.4041	9.6276	33.8524	5.3339	13.6693	-10.0821	40.0384	-0.0592	0.0182	-0.0073	-0.0462	0.0165	0.9585
16.5324	70.7031	741.8816	82.8404	-251.9901	-46.2427	648.436	11.6951	70.3177	6.7357	28.0624	-12.3786	82.7102	-0.0592	0.0182	-0.0073	-0.0462	0.0165	0.9585
16.5444	69.556	731.7036	84.684	-247.9142	-47.9401	637.7545	12.1434	120.374	7.5203	47.7234	-13.2491	141.291	-0.0592	0.0182	-0.0073	-0.0462	0.0165	0.9585
16.5563	66.4414	711.9421	84.7762	-240.5146	-48.923	619.8603	9.4346	182.7549	6.9933	72.0939	-11.3047	214.3264	-0.0592	0.0182	-0.0073	-0.0462	0.0165	0.9585
16.5682	61.7981	681.6409	82.6973	-229.564	-48.6997	593.7212	2.3523	252.7483	4.4152	99.2557	-5.2321	296.2894	-0.0592	0.0182	-0.0073	-0.0462	0.0165	0.9585
16.5801	56.2404	640.7783	78.2458	-215.1682	-46.8912	558.9778	-8.4837	322.5171	-1.1022	126.0846	5.6528	377.881	-0.0592	0.0182	-0.0073	-0.0462	0.0165	0.9585
16.5921	50.3601	590.1951	71.5015	-197.7159	-43.341	515.9544	-20.931	385.4032	-9.7136	149.9849	20.5865	450.9709	-0.0592	0.0182	-0.0073	-0.0462	0.0165	0.9585
16.604	44.4921	531.3379	62.9102	-177.7371	-38.2737	465.6084	-33.218	440.1799	-20.2219	170.478	37.5217	513.8523	-0.0592	0.0182	-0.0073	-0.0462	0.0165	0.9585
16.6159	38.6025	465.8611	53.2744	-155.7629	-32.3355	409.2203	-43.8308	488.5425	-31.5148	188.2841	54.5984	568.2885	-0.0592	0.0182	-0.0073	-0.0462	0.0165	0.9585
16.6279	32.4919	395.9673	43.4694	-132.4529	-26.2865	348.6743	-51.9663	533.0182	-42.3283	204.4527	70.0808	617.2254	-0.0592	0.0182	-0.0073	-0.0462	0.0165	0.9585
16.6398	25.9908	324.4506	34.2592	-108.6533	-20.8026	286.422	-57.2257	575.2021	-51.835	219.6624	82.8895	662.5452	-0.0592	0.0182	-0.0073	-0.0462	0.0165	0.9585
16.6517	19.0823	254.6064	26.1459	-85.394	-16.3097	225.41	-59.7813	615.3564	-59.6486	234.0399	92.652	704.6792	-0.0592	0.0182	-0.0073	-0.0462	0.0165	0.9585
16.6636	12.0574	189.9019	19.3496	-63.797	-12.9156	168.7163	-59.9961	652.8167	-65.8589	247.326	99.6188	742.9874	-0.0592	0.0182	-0.0073	-0.0462	0.0165	0.9585
16.6756	5.5324	133.3998	13.8649	-44.8851	-10.4296	119.0828	-58.5017	686.7057	-70.8005	259.1512	104.4021	776.7049	-0.0592	0.0182	-0.0073	-0.0462	0.0165	0.9585
16.6875	0.28368	87.0378	9.5622	-29.3296	-8.4974	78.2186	-55.8915	716.0892	-74.7874	269.1411	107.5979	804.9887	-0.0592	0.0182	-0.0073	-0.0462	0.0165	0.9585
16.6994	-3.2171	51.35	6.2537	-17.336	-6.8077	46.6346	-52.7545	740.2728	-78.122	277.0188	109.7661	827.293	-0.0592	0.0182	-0.0073	-0.0462	0.0165	0.9585
16.7114	-4.9272	25.7109	3.7363	-8.7162	-5.1774	23.8075	-49.4998	758.8126	-80.8778	282.6355	111.1687	843.262	-0.0592	0.0182	-0.0073	-0.0462	0.0165	0.9585
16.7233	-5.2189	8.7789	1.913	-3.0244	-3.6588	8.6376	-46.4621	771.6327	-83.0583	286.0002	111.9395	852.9447	-0.0592	0.0182	-0.0073	-0.0462	0.0165	0.9585
16.7352	-4.6554	-1.1796	0.6774	0.31718	-2.3583	-0.35208	-43.7057	779.0234	-84.4665	287.2859	111.9196	856.7186	-0.0592	0.0182	-0.0073	-0.0462	0.0165	0.9585
16.7471	-3.7266	-5.9852	-0.031481	1.9286	-1.397	-4.711	-41.2307	781.5708	-84.9476	286.7775	110.9518	855.2868	-0.0592	0.0182	-0.0073	-0.0462	0.0165	0.9585
16.7591	-2.7165	-7.3461	-0.39002	2.3849	-0.71746	-5.9826	-38.925	779.9636	-84.3819	284.7969	108.8869	849.4009	-0.0592	0.0182	-0.0073	-0.0462	0.0165	0.9585
16.771	-1.8184	-6.6693	-0.48848	2.1623	-0.30776	-5.407	-36.7201	774.9563	-82.8949	281.6589	105.8456	839.9001	-0.0592	0.0182	-0.0073	-0.0462	0.0165	0.9585
16.7829	-1.0777	-4.9833	-0.45265	1.6036	-0.073922	-3.9283	-34.582	767.2715	-80.7354	277.654	102.0948	827.551	-0.0592	0.0182	-0.0073	-0.0462	0.0165	0.9585
16.7949	-0.54342	-2.9851	-0.3402	0.94468	0.01944	-2.1488	-32.5405	757.8418	-78.2031	273.1323	97.9755	813.3571	-0.0592	0.0182	-0.0073	-0.0462	0.0165	0.9585
16.8068	-0.16683	-1.0942	-0.21389	0.32448	0.041973	-0.46604	-30.5974	747.8066	-75.5227	268.5222	93.7438	798.4974	-0.0592	0.0182	-0.0073	-0.0462	0.0165	0.9585
16.8187	0.05717	0.49852	-0.099434	-0.19009	0.021796	0.96924	-28.779	738.381	-72.8396	264.2832	89.5669	784.2285	-0.0592	0.0182	-0.0073	-0.0462	0.0165	0.9585
16.8306	0.18649	1.7058	-0.0059408	-0.57401	-0.013203	2.0525	-27.0576	730.6369	-70.2302	260.8212	85.5229	771.6322	-0.0592	0.0182	-0.0073	-0.0462	0.0165	0.9585
16.8426	0.23283	2.5659	0.052217	-0.84171	-0.03926	2.8327	-25.4227	725.3121	-67.7341	258.4153	81.6521	761.4407	-0.0592	0.0182	-0.0073	-0.0462	0.0165	0.9585
16.8545	0.25218	3.1169	0.097947	-1.0107	-0.061812	3.3243	-23.8218	722.74	-65.3841	257.1902	77.9727	753.9431	-0.0592	0.0182	-0.0073	-0.0462	0.0165	0.9585
16.8664	0.23679	3.4399	0.11444	-1.1118	-0.065935	3.6135	-22.1774	722.9271	-63.2088	257.1406	74.4872	749.0911	-0.0592	0.0182	-0.0073	-0.0462	0.0165	0.9585
16.8784	0.22581	3.6015	0.14079	-1.1692	-0.082782	3.7475	-20.389	725.5088	-61.2312	258.1257	71.1856	746.4541	-0.0592	0.0182	-0.0073	-0.0462	0.0165	0.9585
16.8903	0.19499	3.661	0.15224	-1.2033	-0.096328	3.7946	-18.3759	729.8366	-59.4648	259.8952	68.053	745.3422	-0.0592	0.0182	-0.0073	-0.0462	0.0165	0.9585
16.9022	0.15761	3.6452	0.18449	-1.2205	-0.13943	3.7697	-16.0665	735.0746	-57.8997	262.125	65.0567	744.8919	-0.0592	0.0182	-0.0073	-0.0462	0.0165	0.9585
16.9141	0.089635	3.5853	0.21417	-1.2255	-0.19783	3.6972	-13.4379	740.3466	-56.5142	264.4715	62.167	744.2424	-0.0592	0.0182	-0.0073	-0.0462	0.0165	0.9585
16.9261	-0.0014186	3.4524	0.26431	-1.2013	-0.29533	3.5268	-10.4727	744.8776	-55.2944	266.62	59.3661	742.6563	-0.0592	0.0182	-0.0073	-0.0462	0.0165	0.9585
16.938	-0.13309	3.2078	0.32513	-1.1276	-0.42551	3.2161	-7.1789	748.0803	-54.2409	268.3164	56.6557	739.6104	-0.0592	0.0182	-0.0073	-0.0462	0.0165	0.9585
16.9499	-0.28522	2.7624	0.41239	-0.96976	-0.59805	2.6653	-3.5766	749.577	-53.4003	269.3832	54.0714	734.7914	-0.0592	0.0182	-0.0073	-0.0462	0.0165	0.9585
16.9619	-0.46393	2.0263	0.52976	-0.69298	-0.814	1.7783	0.30986	749.2968	-52.8484	269.7554	51.6722	728.1878	-0.0592	0.0182	-0.0073	-0.0462	0.0165	0.9585
16.9738	-0.64375	0.90298	0.67496	-0.26154	-1.063	0.44632	4.4513	747.4254	-52.6591	269.4739	49.5199	720.045	-0.0592	0.0182	-0.0073	-0.0462	0.0165	0.9585
16.9857	-0.80033	-0.67097	0.84982	0.34519	-1.332	-1.3835	8.7989	744.4416	-52.8821	268.6937	47.6606	710.9004	-0.0592	0.0182	-0.0073	-0.0462	0.0165	0.9585
16.9976	-0.87535	-2.6885	1.0164	1.1175	-1.5574	-3.7131	13.3011	741.0363	-53.5237	267.6549	46.1107	701.4806	-0.0592	0.0182	-0.0073	-0.0462	0.0165	0.9585
17.0096	-0.7935	-5.0181	1.1406	1.9983	-1.663	-6.3972	17.8294	737.9363	-54.5729	266.6149	44.8985	692.5512	-0.0592	0.0182	-0.0073	-0.0462	0.0165	0.9585
17.0215	-0.42824	-7.2971	1.1288	2.8458	-1.4953	-9.0345	22.2228	735.791	-55.9843	265.7996	44.0417	684.8001	-0.0592	0.0182	-0.0073	-0.0462	0.0165	0.9585
17.0334	0.35036	-8.8751	0.89002	3.4099	-0.89046	-10.8851	26.2544	735.0463	-57.7079	265.3588	43.5811	678.7327	-0.0592	0.0182	-0.0073	-0.0462	0.0165	0.9585
17.0454	1.7037	-8.7107	0.26604	3.2932	0.38999	-10.7459	29.6814	735.8435	-59.6758	265.332	43.5501	674.5629	-0.0592	0.0182	-0.0073	-0.0462	0.0165	0.9585
17.0573	3.7755	-5.3455	-0.88805	1.9404	2.5744	-6.9003	32.3126	737.9928	-61.8272	265.6389	43.9721	672.1823	-0.0592	0.0182	-0.0073	-0.0462	0.0165	0.9585
17.0692	6.6394	3.1012	-2.7429	-1.3617	5.8859	2.8686	34.0736	740.9614	-64.0682	266.084	44.8002	671.142	-0.0592	0.0182	-0.0073	-0.0462	0.0165	0.9585
17.0811	10.246	18.7969	-5.3919	-7.43	10.4103	21.1153	35.0396	743.9064	-66.2822	266.3729	45.9145	670.6678	-0.0592	0.0182	-0.0073	-0.0462	0.0165	0.9585
17.0931	14.2882	43.8582	-8.8383	-17.055	16.0191	50.3675	35.4325	745.7578	-68.2888	266.1511	47.0831	669.7219	-0.0592	0.0182	-0.0073	-0.0462	0.0165	0.9585
17.105	18.077	79.7483	-12.8532	-30.7666	22.1676	92.3945	35.53	745.2438	-69.8388	265.0157	47.9919	667.0539	-0.0592	0.0182	-0.0073	-0.0462	0.0165	0.9585
